<svg width="26" height="22" viewBox="0 0 26 22" fill="none" xmlns="http://www.w3.org/2000/svg">
<path d="M9.41746 16.2561H21.6282C22.0358 16.2561 22.3916 15.9213 22.3916 15.4713C22.3916 15.0213 22.0358 14.6865 21.6282 14.6865H9.59514C8.99871 14.6865 8.63264 14.2677 8.53845 13.6298L8.37104 12.5311H21.6487C23.1764 12.5311 23.9612 11.5892 24.1809 10.0932L25.0179 4.5579C25.0401 4.42646 25.0541 4.29377 25.0599 4.16058C25.0599 3.65835 24.6831 3.31282 24.1076 3.31282H7.02148L6.82237 1.98424C6.71791 1.17844 6.42505 0.769958 5.35809 0.769958H1.68487C1.26657 0.769958 0.910767 1.13692 0.910767 1.55567C0.910767 1.98424 1.26657 2.35076 1.68532 2.35076H5.22148L6.89559 13.8392C7.11568 15.3249 7.90005 16.2561 9.41746 16.2561ZM23.2809 4.89273L22.5389 9.90478C22.455 10.5534 22.1099 10.9512 21.4925 10.9512L8.14157 10.9615L7.25184 4.89273H23.2809ZM10.2443 21.3414C10.4674 21.3432 10.6886 21.3006 10.8951 21.2161C11.1016 21.1316 11.2892 21.0068 11.447 20.849C11.6047 20.6912 11.7295 20.5036 11.8141 20.2972C11.8986 20.0907 11.9412 19.8694 11.9393 19.6463C11.9403 19.4234 11.8971 19.2026 11.8122 18.9965C11.7274 18.7904 11.6026 18.6032 11.445 18.4456C11.2874 18.288 11.1001 18.1632 10.894 18.0783C10.688 17.9935 10.4671 17.9503 10.2443 17.9512C9.29246 17.9512 8.53889 18.7048 8.53889 19.6463C8.53889 20.5985 9.29246 21.3414 10.2443 21.3414ZM20.0273 21.3414C20.9795 21.3414 21.7326 20.5985 21.7326 19.6463C21.7326 18.7043 20.9795 17.9512 20.0273 17.9512C19.0858 17.9512 18.3219 18.7048 18.3219 19.6463C18.3219 20.5985 19.0858 21.3414 20.0273 21.3414Z" fill="#FF0000"/>
</svg>
