<svg width="30" height="31" viewBox="0 0 30 31" fill="none" xmlns="http://www.w3.org/2000/svg">
<path d="M9.13501 26.6672C8.60751 26.6672 8.16293 26.4864 7.80126 26.1247C7.43959 25.7631 7.25918 25.3189 7.26001 24.7922C7.26084 24.2655 7.44126 23.821 7.80126 23.4585C8.16293 23.0976 8.60751 22.9172 9.13501 22.9172C9.66251 22.9172 10.1067 23.0976 10.4675 23.4585C10.8283 23.8193 11.0092 24.2639 11.01 24.7922C11.0108 25.3205 10.83 25.7647 10.4675 26.1247C10.105 26.4847 9.66084 26.6655 9.13501 26.6672ZM20.865 26.6672C20.3383 26.6672 19.8942 26.4864 19.5325 26.1247C19.1708 25.7631 18.99 25.3189 18.99 24.7922C18.99 24.2655 19.1708 23.821 19.5325 23.4585C19.8942 23.0976 20.3383 22.9172 20.865 22.9172C21.3917 22.9172 21.8363 23.0976 22.1988 23.4585C22.5596 23.8201 22.74 24.2647 22.74 24.7922C22.74 25.3189 22.5596 25.7631 22.1988 26.1247C21.8371 26.4864 21.3925 26.6672 20.865 26.6672ZM4.76001 4.64722H3.12501C2.94751 4.64722 2.79876 4.58763 2.67876 4.46847C2.55876 4.3493 2.49918 4.20055 2.50001 4.02222C2.50084 3.84388 2.56043 3.69513 2.67876 3.57597C2.79709 3.4568 2.94584 3.39722 3.12501 3.39722H4.92376C5.12043 3.39722 5.29876 3.44763 5.45876 3.54847C5.61959 3.6493 5.74418 3.79013 5.83251 3.97097L10.68 14.1672H18.9738C19.1179 14.1672 19.2463 14.131 19.3588 14.0585C19.4704 13.986 19.5663 13.886 19.6463 13.7585L23.8413 6.20972C23.8979 6.11388 23.9717 6.03763 24.0625 5.98097C24.1533 5.9243 24.2575 5.89638 24.375 5.89722C24.6142 5.89722 24.7933 6.00013 24.9125 6.20597C25.0317 6.4118 25.0329 6.61888 24.9163 6.82722L20.7113 14.4397C20.5304 14.7447 20.2954 14.9839 20.0063 15.1572C19.7171 15.3306 19.3992 15.4172 19.0525 15.4172H10.125L8.60626 18.2047C8.47793 18.3972 8.47376 18.6055 8.59376 18.8297C8.71376 19.0539 8.89418 19.1664 9.13501 19.1672H22.115C22.2933 19.1672 22.4421 19.2268 22.5613 19.346C22.6804 19.4651 22.74 19.6139 22.74 19.7922C22.74 19.9706 22.6804 20.1189 22.5613 20.2372C22.4421 20.3556 22.2933 20.4155 22.115 20.4172H9.13501C8.40584 20.4172 7.86043 20.111 7.49876 19.4985C7.13709 18.886 7.12959 18.2672 7.47626 17.6422L9.35626 14.2922L4.76001 4.64722ZM16.7575 8.39722H11.25C11.0725 8.39722 10.9238 8.33763 10.8038 8.21847C10.6838 8.0993 10.6242 7.95055 10.625 7.77222C10.6258 7.59388 10.6854 7.44513 10.8038 7.32597C10.9221 7.2068 11.0708 7.14722 11.25 7.14722H16.7575L14.55 4.93972C14.4275 4.81805 14.3675 4.67888 14.37 4.52222C14.3725 4.36555 14.435 4.22597 14.5575 4.10347C14.6783 3.9868 14.8217 3.92722 14.9875 3.92472C15.1533 3.92222 15.2967 3.9818 15.4175 4.10347L18.4025 7.06597C18.605 7.26763 18.7063 7.50305 18.7063 7.77222C18.7063 8.04138 18.605 8.27722 18.4025 8.47972L15.4175 11.4647C15.3008 11.5814 15.1625 11.6368 15.0025 11.631C14.8433 11.626 14.7029 11.5622 14.5813 11.4397C14.4638 11.3231 14.405 11.1797 14.405 11.0097C14.405 10.8397 14.4633 10.6964 14.58 10.5797L16.7575 8.39722Z" fill="black"/>
</svg>
