<svg width="27" height="32" viewBox="0 0 27 32" fill="none" xmlns="http://www.w3.org/2000/svg">
<path d="M13.125 31.7847C14.1196 31.7847 15.0734 31.3711 15.7766 30.6348C16.4799 29.8986 16.875 28.9 16.875 27.8587H9.375C9.375 28.9 9.77009 29.8986 10.4733 30.6348C11.1766 31.3711 12.1304 31.7847 13.125 31.7847ZM13.125 4.14154L11.6306 4.45759C9.93523 4.81849 8.41114 5.78195 7.31663 7.18472C6.22211 8.58748 5.62448 10.3433 5.625 12.1546C5.625 13.3874 5.37375 16.4673 4.76437 19.5002C4.46438 21.0058 4.05937 22.5743 3.52125 23.9327H22.7288C22.1906 22.5743 21.7875 21.0078 21.4856 19.5002C20.8762 16.4673 20.625 13.3874 20.625 12.1546C20.6251 10.3436 20.0273 8.58828 18.9328 7.18592C17.8383 5.78356 16.3145 4.82038 14.6194 4.45955L13.125 4.14154ZM24.7875 23.9327C25.2056 24.8101 25.6894 25.5051 26.25 25.8957H0C0.560625 25.5051 1.04437 24.8101 1.4625 23.9327C3.15 20.3992 3.75 13.882 3.75 12.1546C3.75 7.40408 6.975 3.43878 11.2594 2.53383C11.2332 2.26088 11.262 1.98522 11.3438 1.72462C11.4257 1.46402 11.5588 1.22428 11.7345 1.02085C11.9103 0.817419 12.1249 0.654819 12.3644 0.543535C12.6039 0.432252 12.863 0.374756 13.125 0.374756C13.387 0.374756 13.6461 0.432252 13.8856 0.543535C14.1251 0.654819 14.3397 0.817419 14.5155 1.02085C14.6912 1.22428 14.8243 1.46402 14.9062 1.72462C14.988 1.98522 15.0168 2.26088 14.9906 2.53383C17.1102 2.98444 19.0158 4.18848 20.3844 5.94189C21.753 7.69529 22.5004 9.89019 22.5 12.1546C22.5 13.882 23.1 20.3992 24.7875 23.9327Z" fill="black"/>
</svg>
