<svg width="33" height="27" viewBox="0 0 33 27" fill="none" xmlns="http://www.w3.org/2000/svg">
<path d="M11.532 19.8271H27.6387C28.1764 19.8271 28.6457 19.4104 28.6457 18.8504C28.6457 18.2904 28.1764 17.8738 27.6387 17.8738H11.7664C10.9797 17.8738 10.4968 17.3526 10.3725 16.5588L10.1517 15.1915H27.6658C29.6809 15.1915 30.7161 14.0193 31.0059 12.1576L32.11 5.26931C32.1393 5.10574 32.1578 4.9406 32.1653 4.77486C32.1653 4.14986 31.6683 3.71986 30.9093 3.71986H8.37157L8.10894 2.06653C7.97114 1.06375 7.58485 0.55542 6.17745 0.55542H1.33225C0.780484 0.55542 0.311157 1.01209 0.311157 1.5332C0.311157 2.06653 0.780484 2.52264 1.33284 2.52264H5.99726L8.20551 16.8193C8.49582 18.6682 9.53046 19.8271 11.532 19.8271ZM29.8187 5.68598L28.84 11.9232C28.7293 12.7304 28.2741 13.2254 27.4597 13.2254L9.84904 13.2382L8.67543 5.68598H29.8187ZM12.6226 26.1554C12.9169 26.1577 13.2088 26.1047 13.4811 25.9995C13.7535 25.8943 14.001 25.739 14.2091 25.5427C14.4172 25.3464 14.5818 25.1129 14.6933 24.8559C14.8048 24.599 14.861 24.3236 14.8585 24.046C14.8598 23.7686 14.8028 23.4938 14.6909 23.2373C14.5789 22.9809 14.4143 22.7479 14.2064 22.5518C13.9986 22.3556 13.7516 22.2003 13.4797 22.0947C13.2079 21.9891 12.9166 21.9354 12.6226 21.9365C11.3671 21.9365 10.3731 22.8743 10.3731 24.046C10.3731 25.231 11.3671 26.1554 12.6226 26.1554ZM25.527 26.1554C26.7831 26.1554 27.7765 25.231 27.7765 24.046C27.7765 22.8738 26.7831 21.9365 25.527 21.9365C24.2851 21.9365 23.2776 22.8743 23.2776 24.046C23.2776 25.231 24.2851 26.1554 25.527 26.1554Z" fill="white"/>
</svg>
