<svg width="26" height="26" viewBox="0 0 26 26" fill="none" xmlns="http://www.w3.org/2000/svg">
<path d="M20.25 20.6718C18.8625 20.6718 17.75 21.7843 17.75 23.1718C17.75 23.8348 18.0134 24.4707 18.4822 24.9395C18.9511 25.4084 19.587 25.6718 20.25 25.6718C20.913 25.6718 21.5489 25.4084 22.0178 24.9395C22.4866 24.4707 22.75 23.8348 22.75 23.1718C22.75 22.5087 22.4866 21.8728 22.0178 21.404C21.5489 20.9351 20.913 20.6718 20.25 20.6718ZM0.25 0.671753V3.17175H2.75L7.25 12.6593L5.55 15.7218C5.3625 16.0718 5.25 16.4843 5.25 16.9218C5.25 17.5848 5.51339 18.2207 5.98223 18.6895C6.45107 19.1584 7.08696 19.4218 7.75 19.4218H22.75V16.9218H8.275C8.19212 16.9218 8.11263 16.8888 8.05403 16.8302C7.99542 16.7716 7.9625 16.6921 7.9625 16.6093C7.9625 16.5468 7.975 16.4968 8 16.4593L9.125 14.4218H18.4375C19.375 14.4218 20.2 13.8968 20.625 13.1343L25.1 5.04675C25.1875 4.84675 25.25 4.63425 25.25 4.42175C25.25 4.09023 25.1183 3.77229 24.8839 3.53787C24.6495 3.30345 24.3315 3.17175 24 3.17175H5.5125L4.3375 0.671753M7.75 20.6718C6.3625 20.6718 5.25 21.7843 5.25 23.1718C5.25 23.8348 5.51339 24.4707 5.98223 24.9395C6.45107 25.4084 7.08696 25.6718 7.75 25.6718C8.41304 25.6718 9.04893 25.4084 9.51777 24.9395C9.98661 24.4707 10.25 23.8348 10.25 23.1718C10.25 22.5087 9.98661 21.8728 9.51777 21.404C9.04893 20.9351 8.41304 20.6718 7.75 20.6718Z" fill="white"/>
</svg>
